<?xml version="1.0" encoding="utf-8" standalone="no"?>
<!DOCTYPE svg PUBLIC "-//W3C//DTD SVG 1.1//EN"
  "http://www.w3.org/Graphics/SVG/1.1/DTD/svg11.dtd">
<svg xmlns:xlink="http://www.w3.org/1999/xlink" width="435.9pt" height="298.058125pt" viewBox="0 0 435.9 298.058125" xmlns="http://www.w3.org/2000/svg" version="1.1">
 <metadata>
  <rdf:RDF xmlns:dc="http://purl.org/dc/elements/1.1/" xmlns:cc="http://creativecommons.org/ns#" xmlns:rdf="http://www.w3.org/1999/02/22-rdf-syntax-ns#">
   <cc:Work>
    <dc:type rdf:resource="http://purl.org/dc/dcmitype/StillImage"/>
    <dc:date>2026-07-18T15:51:06.515233</dc:date>
    <dc:format>image/svg+xml</dc:format>
    <dc:creator>
     <cc:Agent>
      <dc:title>Matplotlib v3.9.0, https://matplotlib.org/</dc:title>
     </cc:Agent>
    </dc:creator>
   </cc:Work>
  </rdf:RDF>
 </metadata>
 <defs>
  <style type="text/css">*{stroke-linejoin: round; stroke-linecap: butt}</style>
 </defs>
 <g id="figure_1">
  <g id="patch_1">
   <path d="M 0 298.058125
L 435.9 298.058125
L 435.9 0
L 0 0
z
" style="fill: #ffffff"/>
  </g>
  <g id="axes_1">
   <g id="patch_2">
    <path d="M 41.7 268.08
L 432.3 268.08
L 432.3 18.6
L 41.7 18.6
z
" style="fill: #ffffff"/>
   </g>
   <g id="matplotlib.axis_1">
    <g id="xtick_1">
     <g id="line2d_1">
      <defs>
       <path id="mc8cf581c0b" d="M 0 0
L 0 -3
" style="stroke: #000000; stroke-width: 0.5"/>
      </defs>
      <g>
       <use xlink:href="#mc8cf581c0b" x="81.693311" y="268.08" style="stroke: #000000; stroke-width: 0.5"/>
      </g>
     </g>
     <g id="line2d_2">
      <defs>
       <path id="m4a0376a647" d="M 0 0
L 0 3
" style="stroke: #000000; stroke-width: 0.5"/>
      </defs>
      <g>
       <use xlink:href="#m4a0376a647" x="81.693311" y="18.6" style="stroke: #000000; stroke-width: 0.5"/>
      </g>
     </g>
     <g id="text_1">
      <!-- $\mathdefault{250}$ -->
      <g transform="translate(74.193311 278.519062) scale(0.1 -0.1)">
       <defs>
        <path id="Cmr10-32" d="M 319 0
L 319 172
Q 319 188 331 206
L 1325 1306
Q 1550 1550 1690 1715
Q 1831 1881 1968 2097
Q 2106 2313 2186 2536
Q 2266 2759 2266 3009
Q 2266 3272 2169 3511
Q 2072 3750 1880 3894
Q 1688 4038 1416 4038
Q 1138 4038 916 3870
Q 694 3703 603 3438
Q 628 3444 672 3444
Q 816 3444 917 3347
Q 1019 3250 1019 3097
Q 1019 2950 917 2848
Q 816 2747 672 2747
Q 522 2747 420 2851
Q 319 2956 319 3097
Q 319 3338 409 3548
Q 500 3759 670 3923
Q 841 4088 1055 4175
Q 1269 4263 1509 4263
Q 1875 4263 2190 4108
Q 2506 3953 2690 3670
Q 2875 3388 2875 3009
Q 2875 2731 2753 2481
Q 2631 2231 2440 2026
Q 2250 1822 1953 1562
Q 1656 1303 1563 1216
L 838 519
L 1453 519
Q 1906 519 2211 526
Q 2516 534 2534 550
Q 2609 631 2688 1141
L 2875 1141
L 2694 0
L 319 0
z
" transform="scale(0.015625)"/>
        <path id="Cmr10-35" d="M 556 728
Q 622 541 758 387
Q 894 234 1080 148
Q 1266 63 1466 63
Q 1928 63 2103 422
Q 2278 781 2278 1294
Q 2278 1516 2270 1667
Q 2263 1819 2228 1959
Q 2169 2184 2020 2353
Q 1872 2522 1656 2522
Q 1441 2522 1286 2456
Q 1131 2391 1034 2303
Q 938 2216 863 2119
Q 788 2022 769 2016
L 697 2016
Q 681 2016 657 2036
Q 634 2056 634 2075
L 634 4213
Q 634 4228 654 4245
Q 675 4263 697 4263
L 716 4263
Q 1147 4056 1631 4056
Q 2106 4056 2547 4263
L 2566 4263
Q 2588 4263 2606 4247
Q 2625 4231 2625 4213
L 2625 4153
Q 2625 4122 2613 4122
Q 2394 3831 2064 3668
Q 1734 3506 1381 3506
Q 1125 3506 856 3578
L 856 2369
Q 1069 2541 1236 2614
Q 1403 2688 1663 2688
Q 2016 2688 2295 2484
Q 2575 2281 2725 1954
Q 2875 1628 2875 1288
Q 2875 903 2686 575
Q 2497 247 2172 53
Q 1847 -141 1466 -141
Q 1150 -141 886 21
Q 622 184 470 459
Q 319 734 319 1044
Q 319 1188 412 1278
Q 506 1369 647 1369
Q 788 1369 883 1276
Q 978 1184 978 1044
Q 978 906 883 811
Q 788 716 647 716
Q 625 716 597 720
Q 569 725 556 728
z
" transform="scale(0.015625)"/>
        <path id="Cmr10-30" d="M 1600 -141
Q 816 -141 533 504
Q 250 1150 250 2041
Q 250 2597 351 3087
Q 453 3578 754 3920
Q 1056 4263 1600 4263
Q 2022 4263 2290 4056
Q 2559 3850 2700 3523
Q 2841 3197 2892 2823
Q 2944 2450 2944 2041
Q 2944 1491 2842 1011
Q 2741 531 2444 195
Q 2147 -141 1600 -141
z
M 1600 25
Q 1956 25 2131 390
Q 2306 756 2347 1200
Q 2388 1644 2388 2144
Q 2388 2625 2347 3031
Q 2306 3438 2132 3767
Q 1959 4097 1600 4097
Q 1238 4097 1063 3765
Q 888 3434 847 3029
Q 806 2625 806 2144
Q 806 1788 823 1472
Q 841 1156 916 820
Q 991 484 1158 254
Q 1325 25 1600 25
z
" transform="scale(0.015625)"/>
       </defs>
       <use xlink:href="#Cmr10-32" transform="translate(0 0.390625)"/>
       <use xlink:href="#Cmr10-35" transform="translate(50 0.390625)"/>
       <use xlink:href="#Cmr10-30" transform="translate(100 0.390625)"/>
      </g>
     </g>
    </g>
    <g id="xtick_2">
     <g id="line2d_3">
      <g>
       <use xlink:href="#mc8cf581c0b" x="129.663999" y="268.08" style="stroke: #000000; stroke-width: 0.5"/>
      </g>
     </g>
     <g id="line2d_4">
      <g>
       <use xlink:href="#m4a0376a647" x="129.663999" y="18.6" style="stroke: #000000; stroke-width: 0.5"/>
      </g>
     </g>
     <g id="text_2">
      <!-- $\mathdefault{500}$ -->
      <g transform="translate(122.163999 278.519062) scale(0.1 -0.1)">
       <use xlink:href="#Cmr10-35" transform="translate(0 0.390625)"/>
       <use xlink:href="#Cmr10-30" transform="translate(50 0.390625)"/>
       <use xlink:href="#Cmr10-30" transform="translate(100 0.390625)"/>
      </g>
     </g>
    </g>
    <g id="xtick_3">
     <g id="line2d_5">
      <g>
       <use xlink:href="#mc8cf581c0b" x="177.634687" y="268.08" style="stroke: #000000; stroke-width: 0.5"/>
      </g>
     </g>
     <g id="line2d_6">
      <g>
       <use xlink:href="#m4a0376a647" x="177.634687" y="18.6" style="stroke: #000000; stroke-width: 0.5"/>
      </g>
     </g>
     <g id="text_3">
      <!-- $\mathdefault{750}$ -->
      <g transform="translate(170.134687 278.519062) scale(0.1 -0.1)">
       <defs>
        <path id="Cmr10-37" d="M 1113 166
Q 1113 522 1175 862
Q 1238 1203 1358 1536
Q 1478 1869 1648 2189
Q 1819 2509 2022 2791
L 2606 3603
L 1875 3603
Q 738 3603 703 3572
Q 619 3469 544 2981
L 359 2981
L 569 4325
L 756 4325
L 756 4306
Q 756 4191 1147 4156
Q 1538 4122 1913 4122
L 3103 4122
L 3103 3956
Q 3103 3950 3101 3947
Q 3100 3944 3097 3938
L 2216 2700
Q 1891 2219 1809 1631
Q 1728 1044 1728 166
Q 1728 41 1637 -50
Q 1547 -141 1422 -141
Q 1294 -141 1203 -50
Q 1113 41 1113 166
z
" transform="scale(0.015625)"/>
       </defs>
       <use xlink:href="#Cmr10-37" transform="translate(0 0.421875)"/>
       <use xlink:href="#Cmr10-35" transform="translate(50 0.421875)"/>
       <use xlink:href="#Cmr10-30" transform="translate(100 0.421875)"/>
      </g>
     </g>
    </g>
    <g id="xtick_4">
     <g id="line2d_7">
      <g>
       <use xlink:href="#mc8cf581c0b" x="225.605375" y="268.08" style="stroke: #000000; stroke-width: 0.5"/>
      </g>
     </g>
     <g id="line2d_8">
      <g>
       <use xlink:href="#m4a0376a647" x="225.605375" y="18.6" style="stroke: #000000; stroke-width: 0.5"/>
      </g>
     </g>
     <g id="text_4">
      <!-- $\mathdefault{1000}$ -->
      <g transform="translate(215.605375 278.519062) scale(0.1 -0.1)">
       <defs>
        <path id="Cmr10-31" d="M 594 0
L 594 225
Q 1394 225 1394 428
L 1394 3788
Q 1063 3628 556 3628
L 556 3853
Q 1341 3853 1741 4263
L 1831 4263
Q 1853 4263 1873 4245
Q 1894 4228 1894 4206
L 1894 428
Q 1894 225 2694 225
L 2694 0
L 594 0
z
" transform="scale(0.015625)"/>
       </defs>
       <use xlink:href="#Cmr10-31" transform="translate(0 0.390625)"/>
       <use xlink:href="#Cmr10-30" transform="translate(50 0.390625)"/>
       <use xlink:href="#Cmr10-30" transform="translate(100 0.390625)"/>
       <use xlink:href="#Cmr10-30" transform="translate(150 0.390625)"/>
      </g>
     </g>
    </g>
    <g id="xtick_5">
     <g id="line2d_9">
      <g>
       <use xlink:href="#mc8cf581c0b" x="273.576063" y="268.08" style="stroke: #000000; stroke-width: 0.5"/>
      </g>
     </g>
     <g id="line2d_10">
      <g>
       <use xlink:href="#m4a0376a647" x="273.576063" y="18.6" style="stroke: #000000; stroke-width: 0.5"/>
      </g>
     </g>
     <g id="text_5">
      <!-- $\mathdefault{1250}$ -->
      <g transform="translate(263.576063 278.519062) scale(0.1 -0.1)">
       <use xlink:href="#Cmr10-31" transform="translate(0 0.390625)"/>
       <use xlink:href="#Cmr10-32" transform="translate(50 0.390625)"/>
       <use xlink:href="#Cmr10-35" transform="translate(100 0.390625)"/>
       <use xlink:href="#Cmr10-30" transform="translate(150 0.390625)"/>
      </g>
     </g>
    </g>
    <g id="xtick_6">
     <g id="line2d_11">
      <g>
       <use xlink:href="#mc8cf581c0b" x="321.54675" y="268.08" style="stroke: #000000; stroke-width: 0.5"/>
      </g>
     </g>
     <g id="line2d_12">
      <g>
       <use xlink:href="#m4a0376a647" x="321.54675" y="18.6" style="stroke: #000000; stroke-width: 0.5"/>
      </g>
     </g>
     <g id="text_6">
      <!-- $\mathdefault{1500}$ -->
      <g transform="translate(311.54675 278.519062) scale(0.1 -0.1)">
       <use xlink:href="#Cmr10-31" transform="translate(0 0.390625)"/>
       <use xlink:href="#Cmr10-35" transform="translate(50 0.390625)"/>
       <use xlink:href="#Cmr10-30" transform="translate(100 0.390625)"/>
       <use xlink:href="#Cmr10-30" transform="translate(150 0.390625)"/>
      </g>
     </g>
    </g>
    <g id="xtick_7">
     <g id="line2d_13">
      <g>
       <use xlink:href="#mc8cf581c0b" x="369.517438" y="268.08" style="stroke: #000000; stroke-width: 0.5"/>
      </g>
     </g>
     <g id="line2d_14">
      <g>
       <use xlink:href="#m4a0376a647" x="369.517438" y="18.6" style="stroke: #000000; stroke-width: 0.5"/>
      </g>
     </g>
     <g id="text_7">
      <!-- $\mathdefault{1750}$ -->
      <g transform="translate(359.517438 278.519062) scale(0.1 -0.1)">
       <use xlink:href="#Cmr10-31" transform="translate(0 0.421875)"/>
       <use xlink:href="#Cmr10-37" transform="translate(50 0.421875)"/>
       <use xlink:href="#Cmr10-35" transform="translate(100 0.421875)"/>
       <use xlink:href="#Cmr10-30" transform="translate(150 0.421875)"/>
      </g>
     </g>
    </g>
    <g id="xtick_8">
     <g id="line2d_15">
      <g>
       <use xlink:href="#mc8cf581c0b" x="417.488126" y="268.08" style="stroke: #000000; stroke-width: 0.5"/>
      </g>
     </g>
     <g id="line2d_16">
      <g>
       <use xlink:href="#m4a0376a647" x="417.488126" y="18.6" style="stroke: #000000; stroke-width: 0.5"/>
      </g>
     </g>
     <g id="text_8">
      <!-- $\mathdefault{2000}$ -->
      <g transform="translate(407.488126 278.519062) scale(0.1 -0.1)">
       <use xlink:href="#Cmr10-32" transform="translate(0 0.390625)"/>
       <use xlink:href="#Cmr10-30" transform="translate(50 0.390625)"/>
       <use xlink:href="#Cmr10-30" transform="translate(100 0.390625)"/>
       <use xlink:href="#Cmr10-30" transform="translate(150 0.390625)"/>
      </g>
     </g>
    </g>
    <g id="xtick_9">
     <g id="line2d_17">
      <defs>
       <path id="md9d15b26b2" d="M 0 0
L 0 -1.5
" style="stroke: #000000; stroke-width: 0.5"/>
      </defs>
      <g>
       <use xlink:href="#md9d15b26b2" x="43.316761" y="268.08" style="stroke: #000000; stroke-width: 0.5"/>
      </g>
     </g>
     <g id="line2d_18">
      <defs>
       <path id="mfbcd8d9e6d" d="M 0 0
L 0 1.5
" style="stroke: #000000; stroke-width: 0.5"/>
      </defs>
      <g>
       <use xlink:href="#mfbcd8d9e6d" x="43.316761" y="18.6" style="stroke: #000000; stroke-width: 0.5"/>
      </g>
     </g>
    </g>
    <g id="xtick_10">
     <g id="line2d_19">
      <g>
       <use xlink:href="#md9d15b26b2" x="52.910898" y="268.08" style="stroke: #000000; stroke-width: 0.5"/>
      </g>
     </g>
     <g id="line2d_20">
      <g>
       <use xlink:href="#mfbcd8d9e6d" x="52.910898" y="18.6" style="stroke: #000000; stroke-width: 0.5"/>
      </g>
     </g>
    </g>
    <g id="xtick_11">
     <g id="line2d_21">
      <g>
       <use xlink:href="#md9d15b26b2" x="62.505036" y="268.08" style="stroke: #000000; stroke-width: 0.5"/>
      </g>
     </g>
     <g id="line2d_22">
      <g>
       <use xlink:href="#mfbcd8d9e6d" x="62.505036" y="18.6" style="stroke: #000000; stroke-width: 0.5"/>
      </g>
     </g>
    </g>
    <g id="xtick_12">
     <g id="line2d_23">
      <g>
       <use xlink:href="#md9d15b26b2" x="72.099173" y="268.08" style="stroke: #000000; stroke-width: 0.5"/>
      </g>
     </g>
     <g id="line2d_24">
      <g>
       <use xlink:href="#mfbcd8d9e6d" x="72.099173" y="18.6" style="stroke: #000000; stroke-width: 0.5"/>
      </g>
     </g>
    </g>
    <g id="xtick_13">
     <g id="line2d_25">
      <g>
       <use xlink:href="#md9d15b26b2" x="91.287449" y="268.08" style="stroke: #000000; stroke-width: 0.5"/>
      </g>
     </g>
     <g id="line2d_26">
      <g>
       <use xlink:href="#mfbcd8d9e6d" x="91.287449" y="18.6" style="stroke: #000000; stroke-width: 0.5"/>
      </g>
     </g>
    </g>
    <g id="xtick_14">
     <g id="line2d_27">
      <g>
       <use xlink:href="#md9d15b26b2" x="100.881586" y="268.08" style="stroke: #000000; stroke-width: 0.5"/>
      </g>
     </g>
     <g id="line2d_28">
      <g>
       <use xlink:href="#mfbcd8d9e6d" x="100.881586" y="18.6" style="stroke: #000000; stroke-width: 0.5"/>
      </g>
     </g>
    </g>
    <g id="xtick_15">
     <g id="line2d_29">
      <g>
       <use xlink:href="#md9d15b26b2" x="110.475724" y="268.08" style="stroke: #000000; stroke-width: 0.5"/>
      </g>
     </g>
     <g id="line2d_30">
      <g>
       <use xlink:href="#mfbcd8d9e6d" x="110.475724" y="18.6" style="stroke: #000000; stroke-width: 0.5"/>
      </g>
     </g>
    </g>
    <g id="xtick_16">
     <g id="line2d_31">
      <g>
       <use xlink:href="#md9d15b26b2" x="120.069861" y="268.08" style="stroke: #000000; stroke-width: 0.5"/>
      </g>
     </g>
     <g id="line2d_32">
      <g>
       <use xlink:href="#mfbcd8d9e6d" x="120.069861" y="18.6" style="stroke: #000000; stroke-width: 0.5"/>
      </g>
     </g>
    </g>
    <g id="xtick_17">
     <g id="line2d_33">
      <g>
       <use xlink:href="#md9d15b26b2" x="139.258136" y="268.08" style="stroke: #000000; stroke-width: 0.5"/>
      </g>
     </g>
     <g id="line2d_34">
      <g>
       <use xlink:href="#mfbcd8d9e6d" x="139.258136" y="18.6" style="stroke: #000000; stroke-width: 0.5"/>
      </g>
     </g>
    </g>
    <g id="xtick_18">
     <g id="line2d_35">
      <g>
       <use xlink:href="#md9d15b26b2" x="148.852274" y="268.08" style="stroke: #000000; stroke-width: 0.5"/>
      </g>
     </g>
     <g id="line2d_36">
      <g>
       <use xlink:href="#mfbcd8d9e6d" x="148.852274" y="18.6" style="stroke: #000000; stroke-width: 0.5"/>
      </g>
     </g>
    </g>
    <g id="xtick_19">
     <g id="line2d_37">
      <g>
       <use xlink:href="#md9d15b26b2" x="158.446412" y="268.08" style="stroke: #000000; stroke-width: 0.5"/>
      </g>
     </g>
     <g id="line2d_38">
      <g>
       <use xlink:href="#mfbcd8d9e6d" x="158.446412" y="18.6" style="stroke: #000000; stroke-width: 0.5"/>
      </g>
     </g>
    </g>
    <g id="xtick_20">
     <g id="line2d_39">
      <g>
       <use xlink:href="#md9d15b26b2" x="168.040549" y="268.08" style="stroke: #000000; stroke-width: 0.5"/>
      </g>
     </g>
     <g id="line2d_40">
      <g>
       <use xlink:href="#mfbcd8d9e6d" x="168.040549" y="18.6" style="stroke: #000000; stroke-width: 0.5"/>
      </g>
     </g>
    </g>
    <g id="xtick_21">
     <g id="line2d_41">
      <g>
       <use xlink:href="#md9d15b26b2" x="187.228824" y="268.08" style="stroke: #000000; stroke-width: 0.5"/>
      </g>
     </g>
     <g id="line2d_42">
      <g>
       <use xlink:href="#mfbcd8d9e6d" x="187.228824" y="18.6" style="stroke: #000000; stroke-width: 0.5"/>
      </g>
     </g>
    </g>
    <g id="xtick_22">
     <g id="line2d_43">
      <g>
       <use xlink:href="#md9d15b26b2" x="196.822962" y="268.08" style="stroke: #000000; stroke-width: 0.5"/>
      </g>
     </g>
     <g id="line2d_44">
      <g>
       <use xlink:href="#mfbcd8d9e6d" x="196.822962" y="18.6" style="stroke: #000000; stroke-width: 0.5"/>
      </g>
     </g>
    </g>
    <g id="xtick_23">
     <g id="line2d_45">
      <g>
       <use xlink:href="#md9d15b26b2" x="206.417099" y="268.08" style="stroke: #000000; stroke-width: 0.5"/>
      </g>
     </g>
     <g id="line2d_46">
      <g>
       <use xlink:href="#mfbcd8d9e6d" x="206.417099" y="18.6" style="stroke: #000000; stroke-width: 0.5"/>
      </g>
     </g>
    </g>
    <g id="xtick_24">
     <g id="line2d_47">
      <g>
       <use xlink:href="#md9d15b26b2" x="216.011237" y="268.08" style="stroke: #000000; stroke-width: 0.5"/>
      </g>
     </g>
     <g id="line2d_48">
      <g>
       <use xlink:href="#mfbcd8d9e6d" x="216.011237" y="18.6" style="stroke: #000000; stroke-width: 0.5"/>
      </g>
     </g>
    </g>
    <g id="xtick_25">
     <g id="line2d_49">
      <g>
       <use xlink:href="#md9d15b26b2" x="235.199512" y="268.08" style="stroke: #000000; stroke-width: 0.5"/>
      </g>
     </g>
     <g id="line2d_50">
      <g>
       <use xlink:href="#mfbcd8d9e6d" x="235.199512" y="18.6" style="stroke: #000000; stroke-width: 0.5"/>
      </g>
     </g>
    </g>
    <g id="xtick_26">
     <g id="line2d_51">
      <g>
       <use xlink:href="#md9d15b26b2" x="244.79365" y="268.08" style="stroke: #000000; stroke-width: 0.5"/>
      </g>
     </g>
     <g id="line2d_52">
      <g>
       <use xlink:href="#mfbcd8d9e6d" x="244.79365" y="18.6" style="stroke: #000000; stroke-width: 0.5"/>
      </g>
     </g>
    </g>
    <g id="xtick_27">
     <g id="line2d_53">
      <g>
       <use xlink:href="#md9d15b26b2" x="254.387787" y="268.08" style="stroke: #000000; stroke-width: 0.5"/>
      </g>
     </g>
     <g id="line2d_54">
      <g>
       <use xlink:href="#mfbcd8d9e6d" x="254.387787" y="18.6" style="stroke: #000000; stroke-width: 0.5"/>
      </g>
     </g>
    </g>
    <g id="xtick_28">
     <g id="line2d_55">
      <g>
       <use xlink:href="#md9d15b26b2" x="263.981925" y="268.08" style="stroke: #000000; stroke-width: 0.5"/>
      </g>
     </g>
     <g id="line2d_56">
      <g>
       <use xlink:href="#mfbcd8d9e6d" x="263.981925" y="18.6" style="stroke: #000000; stroke-width: 0.5"/>
      </g>
     </g>
    </g>
    <g id="xtick_29">
     <g id="line2d_57">
      <g>
       <use xlink:href="#md9d15b26b2" x="283.1702" y="268.08" style="stroke: #000000; stroke-width: 0.5"/>
      </g>
     </g>
     <g id="line2d_58">
      <g>
       <use xlink:href="#mfbcd8d9e6d" x="283.1702" y="18.6" style="stroke: #000000; stroke-width: 0.5"/>
      </g>
     </g>
    </g>
    <g id="xtick_30">
     <g id="line2d_59">
      <g>
       <use xlink:href="#md9d15b26b2" x="292.764338" y="268.08" style="stroke: #000000; stroke-width: 0.5"/>
      </g>
     </g>
     <g id="line2d_60">
      <g>
       <use xlink:href="#mfbcd8d9e6d" x="292.764338" y="18.6" style="stroke: #000000; stroke-width: 0.5"/>
      </g>
     </g>
    </g>
    <g id="xtick_31">
     <g id="line2d_61">
      <g>
       <use xlink:href="#md9d15b26b2" x="302.358475" y="268.08" style="stroke: #000000; stroke-width: 0.5"/>
      </g>
     </g>
     <g id="line2d_62">
      <g>
       <use xlink:href="#mfbcd8d9e6d" x="302.358475" y="18.6" style="stroke: #000000; stroke-width: 0.5"/>
      </g>
     </g>
    </g>
    <g id="xtick_32">
     <g id="line2d_63">
      <g>
       <use xlink:href="#md9d15b26b2" x="311.952613" y="268.08" style="stroke: #000000; stroke-width: 0.5"/>
      </g>
     </g>
     <g id="line2d_64">
      <g>
       <use xlink:href="#mfbcd8d9e6d" x="311.952613" y="18.6" style="stroke: #000000; stroke-width: 0.5"/>
      </g>
     </g>
    </g>
    <g id="xtick_33">
     <g id="line2d_65">
      <g>
       <use xlink:href="#md9d15b26b2" x="331.140888" y="268.08" style="stroke: #000000; stroke-width: 0.5"/>
      </g>
     </g>
     <g id="line2d_66">
      <g>
       <use xlink:href="#mfbcd8d9e6d" x="331.140888" y="18.6" style="stroke: #000000; stroke-width: 0.5"/>
      </g>
     </g>
    </g>
    <g id="xtick_34">
     <g id="line2d_67">
      <g>
       <use xlink:href="#md9d15b26b2" x="340.735026" y="268.08" style="stroke: #000000; stroke-width: 0.5"/>
      </g>
     </g>
     <g id="line2d_68">
      <g>
       <use xlink:href="#mfbcd8d9e6d" x="340.735026" y="18.6" style="stroke: #000000; stroke-width: 0.5"/>
      </g>
     </g>
    </g>
    <g id="xtick_35">
     <g id="line2d_69">
      <g>
       <use xlink:href="#md9d15b26b2" x="350.329163" y="268.08" style="stroke: #000000; stroke-width: 0.5"/>
      </g>
     </g>
     <g id="line2d_70">
      <g>
       <use xlink:href="#mfbcd8d9e6d" x="350.329163" y="18.6" style="stroke: #000000; stroke-width: 0.5"/>
      </g>
     </g>
    </g>
    <g id="xtick_36">
     <g id="line2d_71">
      <g>
       <use xlink:href="#md9d15b26b2" x="359.923301" y="268.08" style="stroke: #000000; stroke-width: 0.5"/>
      </g>
     </g>
     <g id="line2d_72">
      <g>
       <use xlink:href="#mfbcd8d9e6d" x="359.923301" y="18.6" style="stroke: #000000; stroke-width: 0.5"/>
      </g>
     </g>
    </g>
    <g id="xtick_37">
     <g id="line2d_73">
      <g>
       <use xlink:href="#md9d15b26b2" x="379.111576" y="268.08" style="stroke: #000000; stroke-width: 0.5"/>
      </g>
     </g>
     <g id="line2d_74">
      <g>
       <use xlink:href="#mfbcd8d9e6d" x="379.111576" y="18.6" style="stroke: #000000; stroke-width: 0.5"/>
      </g>
     </g>
    </g>
    <g id="xtick_38">
     <g id="line2d_75">
      <g>
       <use xlink:href="#md9d15b26b2" x="388.705713" y="268.08" style="stroke: #000000; stroke-width: 0.5"/>
      </g>
     </g>
     <g id="line2d_76">
      <g>
       <use xlink:href="#mfbcd8d9e6d" x="388.705713" y="18.6" style="stroke: #000000; stroke-width: 0.5"/>
      </g>
     </g>
    </g>
    <g id="xtick_39">
     <g id="line2d_77">
      <g>
       <use xlink:href="#md9d15b26b2" x="398.299851" y="268.08" style="stroke: #000000; stroke-width: 0.5"/>
      </g>
     </g>
     <g id="line2d_78">
      <g>
       <use xlink:href="#mfbcd8d9e6d" x="398.299851" y="18.6" style="stroke: #000000; stroke-width: 0.5"/>
      </g>
     </g>
    </g>
    <g id="xtick_40">
     <g id="line2d_79">
      <g>
       <use xlink:href="#md9d15b26b2" x="407.893989" y="268.08" style="stroke: #000000; stroke-width: 0.5"/>
      </g>
     </g>
     <g id="line2d_80">
      <g>
       <use xlink:href="#mfbcd8d9e6d" x="407.893989" y="18.6" style="stroke: #000000; stroke-width: 0.5"/>
      </g>
     </g>
    </g>
    <g id="xtick_41">
     <g id="line2d_81">
      <g>
       <use xlink:href="#md9d15b26b2" x="427.082264" y="268.08" style="stroke: #000000; stroke-width: 0.5"/>
      </g>
     </g>
     <g id="line2d_82">
      <g>
       <use xlink:href="#mfbcd8d9e6d" x="427.082264" y="18.6" style="stroke: #000000; stroke-width: 0.5"/>
      </g>
     </g>
    </g>
    <g id="text_9">
     <!-- Parallel transfer distance (pixels) -->
     <g transform="translate(164.397656 291.958125) scale(0.1 -0.1)">
      <defs>
       <path id="Cmr10-50" d="M 213 0
L 213 225
Q 872 225 872 428
L 872 3944
Q 872 4147 213 4147
L 213 4372
L 2491 4372
Q 2841 4372 3191 4228
Q 3541 4084 3767 3809
Q 3994 3534 3994 3169
Q 3994 2813 3766 2544
Q 3538 2275 3191 2136
Q 2844 1997 2491 1997
L 1466 1997
L 1466 428
Q 1466 225 2125 225
L 2125 0
L 213 0
z
M 1447 2188
L 2316 2188
Q 2669 2188 2887 2289
Q 3106 2391 3207 2605
Q 3309 2819 3309 3169
Q 3309 3691 3079 3919
Q 2850 4147 2316 4147
L 1772 4147
Q 1656 4147 1592 4137
Q 1528 4128 1487 4083
Q 1447 4038 1447 3944
L 1447 2188
z
" transform="scale(0.015625)"/>
       <path id="Cmr10-61" d="M 256 628
Q 256 1009 556 1248
Q 856 1488 1276 1586
Q 1697 1684 2075 1684
L 2075 1947
Q 2075 2131 1994 2304
Q 1913 2478 1759 2589
Q 1606 2700 1422 2700
Q 997 2700 775 2509
Q 897 2509 976 2417
Q 1056 2325 1056 2203
Q 1056 2075 965 1984
Q 875 1894 750 1894
Q 622 1894 531 1984
Q 441 2075 441 2203
Q 441 2541 747 2705
Q 1053 2869 1422 2869
Q 1681 2869 1943 2758
Q 2206 2647 2373 2440
Q 2541 2234 2541 1959
L 2541 519
Q 2541 394 2594 289
Q 2647 184 2759 184
Q 2866 184 2917 290
Q 2969 397 2969 519
L 2969 928
L 3156 928
L 3156 519
Q 3156 375 3081 245
Q 3006 116 2879 39
Q 2753 -38 2606 -38
Q 2419 -38 2283 107
Q 2147 253 2131 453
Q 2013 213 1781 70
Q 1550 -72 1288 -72
Q 1044 -72 808 0
Q 572 72 414 226
Q 256 381 256 628
z
M 775 628
Q 775 403 940 250
Q 1106 97 1331 97
Q 1538 97 1706 200
Q 1875 303 1975 481
Q 2075 659 2075 856
L 2075 1522
Q 1784 1522 1479 1426
Q 1175 1331 975 1128
Q 775 925 775 628
z
" transform="scale(0.015625)"/>
       <path id="Cmr10-72" d="M 166 0
L 166 225
Q 384 225 525 259
Q 666 294 666 428
L 666 2175
Q 666 2347 614 2423
Q 563 2500 466 2517
Q 369 2534 166 2534
L 166 2759
L 1081 2828
L 1081 2203
Q 1184 2481 1375 2654
Q 1566 2828 1838 2828
Q 2028 2828 2178 2715
Q 2328 2603 2328 2419
Q 2328 2303 2245 2217
Q 2163 2131 2041 2131
Q 1922 2131 1837 2215
Q 1753 2300 1753 2419
Q 1753 2591 1875 2663
L 1838 2663
Q 1578 2663 1414 2475
Q 1250 2288 1181 2009
Q 1113 1731 1113 1478
L 1113 428
Q 1113 225 1734 225
L 1734 0
L 166 0
z
" transform="scale(0.015625)"/>
       <path id="Cmr10-6c" d="M 197 0
L 197 225
Q 416 225 556 259
Q 697 294 697 428
L 697 3788
Q 697 3959 645 4036
Q 594 4113 497 4130
Q 400 4147 197 4147
L 197 4372
L 1147 4441
L 1147 428
Q 1147 294 1287 259
Q 1428 225 1644 225
L 1644 0
L 197 0
z
" transform="scale(0.015625)"/>
       <path id="Cmr10-65" d="M 1594 -72
Q 1203 -72 876 133
Q 550 338 364 680
Q 178 1022 178 1403
Q 178 1778 348 2115
Q 519 2453 823 2661
Q 1128 2869 1503 2869
Q 1797 2869 2014 2770
Q 2231 2672 2372 2497
Q 2513 2322 2584 2084
Q 2656 1847 2656 1563
Q 2656 1478 2591 1478
L 738 1478
L 738 1409
Q 738 878 952 497
Q 1166 116 1650 116
Q 1847 116 2014 203
Q 2181 291 2304 447
Q 2428 603 2472 781
Q 2478 803 2495 820
Q 2513 838 2534 838
L 2591 838
Q 2656 838 2656 756
Q 2566 394 2266 161
Q 1966 -72 1594 -72
z
M 744 1638
L 2203 1638
Q 2203 1878 2136 2125
Q 2069 2372 1912 2536
Q 1756 2700 1503 2700
Q 1141 2700 942 2361
Q 744 2022 744 1638
z
" transform="scale(0.015625)"/>
       <path id="Cmr10-20" transform="scale(0.015625)"/>
       <path id="Cmr10-74" d="M 653 769
L 653 2534
L 122 2534
L 122 2700
Q 541 2700 737 3090
Q 934 3481 934 3938
L 1119 3938
L 1119 2759
L 2022 2759
L 2022 2534
L 1119 2534
L 1119 781
Q 1119 516 1208 316
Q 1297 116 1528 116
Q 1747 116 1844 327
Q 1941 538 1941 781
L 1941 1159
L 2125 1159
L 2125 769
Q 2125 569 2051 373
Q 1978 178 1834 53
Q 1691 -72 1484 -72
Q 1100 -72 876 158
Q 653 388 653 769
z
" transform="scale(0.015625)"/>
       <path id="Cmr10-6e" d="M 191 0
L 191 225
Q 409 225 550 259
Q 691 294 691 428
L 691 2175
Q 691 2347 639 2423
Q 588 2500 491 2517
Q 394 2534 191 2534
L 191 2759
L 1119 2828
L 1119 2203
Q 1247 2478 1498 2653
Q 1750 2828 2047 2828
Q 2491 2828 2714 2615
Q 2938 2403 2938 1966
L 2938 428
Q 2938 294 3078 259
Q 3219 225 3438 225
L 3438 0
L 1972 0
L 1972 225
Q 2191 225 2331 259
Q 2472 294 2472 428
L 2472 1947
Q 2472 2259 2381 2461
Q 2291 2663 2009 2663
Q 1638 2663 1398 2366
Q 1159 2069 1159 1691
L 1159 428
Q 1159 294 1300 259
Q 1441 225 1656 225
L 1656 0
L 191 0
z
" transform="scale(0.015625)"/>
       <path id="Cmr10-73" d="M 213 -19
L 213 1025
Q 213 1075 269 1075
L 347 1075
Q 384 1075 397 1025
Q 575 97 1259 97
Q 1563 97 1767 234
Q 1972 372 1972 659
Q 1972 866 1812 1011
Q 1653 1156 1434 1209
L 1006 1294
Q 791 1341 614 1437
Q 438 1534 325 1695
Q 213 1856 213 2069
Q 213 2350 361 2529
Q 509 2709 746 2789
Q 984 2869 1259 2869
Q 1588 2869 1831 2694
L 2016 2853
Q 2016 2869 2047 2869
L 2094 2869
Q 2113 2869 2128 2851
Q 2144 2834 2144 2816
L 2144 1978
Q 2144 1919 2094 1919
L 2016 1919
Q 1959 1919 1959 1978
Q 1959 2313 1773 2516
Q 1588 2719 1253 2719
Q 966 2719 755 2612
Q 544 2506 544 2247
Q 544 2069 695 1955
Q 847 1841 1050 1791
L 1484 1709
Q 1703 1659 1892 1540
Q 2081 1422 2192 1240
Q 2303 1059 2303 831
Q 2303 600 2223 429
Q 2144 259 2001 146
Q 1859 34 1665 -19
Q 1472 -72 1259 -72
Q 859 -72 575 197
L 341 -56
Q 341 -72 306 -72
L 269 -72
Q 213 -72 213 -19
z
" transform="scale(0.015625)"/>
       <path id="Cmr10-66" d="M 206 0
L 206 225
Q 422 225 562 259
Q 703 294 703 428
L 703 2534
L 213 2534
L 213 2759
L 703 2759
L 703 3525
Q 703 3731 789 3911
Q 875 4091 1020 4225
Q 1166 4359 1355 4436
Q 1544 4513 1747 4513
Q 1963 4513 2136 4384
Q 2309 4256 2309 4044
Q 2309 3922 2226 3839
Q 2144 3756 2022 3756
Q 1900 3756 1814 3839
Q 1728 3922 1728 4044
Q 1728 4244 1900 4313
Q 1797 4347 1716 4347
Q 1528 4347 1395 4214
Q 1263 4081 1197 3890
Q 1131 3700 1131 3513
L 1131 2759
L 1869 2759
L 1869 2534
L 1153 2534
L 1153 428
Q 1153 297 1340 261
Q 1528 225 1772 225
L 1772 0
L 206 0
z
" transform="scale(0.015625)"/>
       <path id="Cmr10-64" d="M 1563 -72
Q 1184 -72 871 133
Q 559 338 386 672
Q 213 1006 213 1381
Q 213 1769 402 2101
Q 591 2434 916 2631
Q 1241 2828 1631 2828
Q 1866 2828 2075 2729
Q 2284 2631 2438 2456
L 2438 3788
Q 2438 3959 2386 4036
Q 2334 4113 2239 4130
Q 2144 4147 1941 4147
L 1941 4372
L 2888 4441
L 2888 581
Q 2888 413 2939 336
Q 2991 259 3086 242
Q 3181 225 3384 225
L 3384 0
L 2419 -72
L 2419 331
Q 2253 141 2025 34
Q 1797 -72 1563 -72
z
M 909 556
Q 1019 347 1201 222
Q 1384 97 1600 97
Q 1866 97 2087 250
Q 2309 403 2419 647
L 2419 2181
Q 2344 2322 2230 2433
Q 2116 2544 1973 2603
Q 1831 2663 1672 2663
Q 1338 2663 1134 2473
Q 931 2284 850 1990
Q 769 1697 769 1375
Q 769 1119 795 928
Q 822 738 909 556
z
" transform="scale(0.015625)"/>
       <path id="Cmr10-69" d="M 197 0
L 197 225
Q 416 225 556 259
Q 697 294 697 428
L 697 2175
Q 697 2422 601 2478
Q 506 2534 225 2534
L 225 2759
L 1147 2828
L 1147 428
Q 1147 294 1269 259
Q 1391 225 1594 225
L 1594 0
L 197 0
z
M 469 3928
Q 469 4069 575 4175
Q 681 4281 819 4281
Q 909 4281 993 4234
Q 1078 4188 1125 4103
Q 1172 4019 1172 3928
Q 1172 3791 1065 3684
Q 959 3578 819 3578
Q 681 3578 575 3684
Q 469 3791 469 3928
z
" transform="scale(0.015625)"/>
       <path id="Cmr10-63" d="M 1594 -72
Q 1206 -72 890 129
Q 575 331 394 667
Q 213 1003 213 1381
Q 213 1759 392 2106
Q 572 2453 889 2661
Q 1206 2869 1594 2869
Q 1969 2869 2276 2722
Q 2584 2575 2584 2241
Q 2584 2116 2495 2023
Q 2406 1931 2278 1931
Q 2150 1931 2061 2023
Q 1972 2116 1972 2241
Q 1972 2353 2044 2436
Q 2116 2519 2222 2541
Q 2000 2681 1600 2681
Q 1294 2681 1106 2478
Q 919 2275 844 1975
Q 769 1675 769 1381
Q 769 1072 861 783
Q 953 494 1158 305
Q 1363 116 1672 116
Q 1975 116 2187 302
Q 2400 488 2478 788
Q 2478 825 2528 825
L 2606 825
Q 2625 825 2640 808
Q 2656 791 2656 769
L 2656 750
Q 2559 372 2271 150
Q 1984 -72 1594 -72
z
" transform="scale(0.015625)"/>
       <path id="Cmr10-28" d="M 1984 -1588
Q 1628 -1306 1370 -942
Q 1113 -578 948 -165
Q 784 247 703 697
Q 622 1147 622 1600
Q 622 2059 703 2509
Q 784 2959 951 3375
Q 1119 3791 1378 4153
Q 1638 4516 1984 4788
Q 1984 4800 2016 4800
L 2075 4800
Q 2094 4800 2109 4783
Q 2125 4766 2125 4744
Q 2125 4716 2113 4703
Q 1800 4397 1592 4047
Q 1384 3697 1257 3301
Q 1131 2906 1075 2482
Q 1019 2059 1019 1600
Q 1019 -434 2106 -1491
Q 2125 -1509 2125 -1544
Q 2125 -1559 2108 -1579
Q 2091 -1600 2075 -1600
L 2016 -1600
Q 1984 -1600 1984 -1588
z
" transform="scale(0.015625)"/>
       <path id="Cmr10-70" d="M 166 -1241
L 166 -1019
Q 384 -1019 525 -981
Q 666 -944 666 -813
L 666 2272
Q 666 2447 541 2490
Q 416 2534 166 2534
L 166 2759
L 1113 2828
L 1113 2431
Q 1288 2625 1520 2726
Q 1753 2828 2016 2828
Q 2394 2828 2697 2623
Q 3000 2419 3170 2086
Q 3341 1753 3341 1381
Q 3341 994 3152 659
Q 2963 325 2636 126
Q 2309 -72 1919 -72
Q 1453 -72 1131 306
L 1131 -813
Q 1131 -944 1273 -981
Q 1416 -1019 1631 -1019
L 1631 -1241
L 166 -1241
z
M 1131 622
Q 1244 394 1444 245
Q 1644 97 1881 97
Q 2103 97 2273 215
Q 2444 334 2559 534
Q 2675 734 2729 954
Q 2784 1175 2784 1381
Q 2784 1638 2692 1936
Q 2600 2234 2411 2439
Q 2222 2644 1953 2644
Q 1694 2644 1476 2511
Q 1259 2378 1131 2150
L 1131 622
z
" transform="scale(0.015625)"/>
       <path id="Cmr10-78" d="M 78 0
L 78 225
Q 322 225 537 320
Q 753 416 903 603
L 1484 1344
L 728 2328
Q 616 2469 483 2501
Q 350 2534 109 2534
L 109 2759
L 1441 2759
L 1441 2534
Q 1356 2534 1282 2496
Q 1209 2459 1209 2388
Q 1209 2363 1228 2328
L 1741 1663
L 2125 2156
Q 2203 2250 2203 2344
Q 2203 2422 2151 2478
Q 2100 2534 2016 2534
L 2016 2759
L 3194 2759
L 3194 2534
Q 2947 2534 2730 2439
Q 2513 2344 2363 2156
L 1856 1509
L 2675 428
Q 2797 288 2928 256
Q 3059 225 3303 225
L 3303 0
L 1972 0
L 1972 225
Q 2050 225 2122 262
Q 2194 300 2194 372
Q 2194 400 2175 428
L 1600 1191
L 1141 603
Q 1069 522 1069 416
Q 1069 338 1122 281
Q 1175 225 1247 225
L 1247 0
L 78 0
z
" transform="scale(0.015625)"/>
       <path id="Cmr10-29" d="M 416 -1600
Q 359 -1600 359 -1544
Q 359 -1516 372 -1503
Q 1466 -434 1466 1600
Q 1466 3634 384 4691
Q 359 4706 359 4744
Q 359 4766 376 4783
Q 394 4800 416 4800
L 475 4800
Q 494 4800 506 4788
Q 966 4425 1272 3906
Q 1578 3388 1720 2800
Q 1863 2213 1863 1600
Q 1863 1147 1786 708
Q 1709 269 1542 -157
Q 1375 -584 1119 -945
Q 863 -1306 506 -1588
Q 494 -1600 475 -1600
L 416 -1600
z
" transform="scale(0.015625)"/>
      </defs>
      <use xlink:href="#Cmr10-50"/>
      <use xlink:href="#Cmr10-61" x="68.017578"/>
      <use xlink:href="#Cmr10-72" x="118.017578"/>
      <use xlink:href="#Cmr10-61" x="157.128906"/>
      <use xlink:href="#Cmr10-6c" x="207.128906"/>
      <use xlink:href="#Cmr10-6c" x="234.814453"/>
      <use xlink:href="#Cmr10-65" x="262.5"/>
      <use xlink:href="#Cmr10-6c" x="306.884766"/>
      <use xlink:href="#Cmr10-20" x="334.570312"/>
      <use xlink:href="#Cmr10-74" x="367.871094"/>
      <use xlink:href="#Cmr10-72" x="406.689453"/>
      <use xlink:href="#Cmr10-61" x="445.800781"/>
      <use xlink:href="#Cmr10-6e" x="495.800781"/>
      <use xlink:href="#Cmr10-73" x="551.318359"/>
      <use xlink:href="#Cmr10-66" x="590.722656"/>
      <use xlink:href="#Cmr10-65" x="621.240234"/>
      <use xlink:href="#Cmr10-72" x="665.625"/>
      <use xlink:href="#Cmr10-20" x="704.736328"/>
      <use xlink:href="#Cmr10-64" x="738.037109"/>
      <use xlink:href="#Cmr10-69" x="793.554688"/>
      <use xlink:href="#Cmr10-73" x="821.240234"/>
      <use xlink:href="#Cmr10-74" x="860.644531"/>
      <use xlink:href="#Cmr10-61" x="899.462891"/>
      <use xlink:href="#Cmr10-6e" x="949.462891"/>
      <use xlink:href="#Cmr10-63" x="1004.980469"/>
      <use xlink:href="#Cmr10-65" x="1049.365234"/>
      <use xlink:href="#Cmr10-20" x="1093.75"/>
      <use xlink:href="#Cmr10-28" x="1127.050781"/>
      <use xlink:href="#Cmr10-70" x="1165.869141"/>
      <use xlink:href="#Cmr10-69" x="1221.386719"/>
      <use xlink:href="#Cmr10-78" x="1249.072266"/>
      <use xlink:href="#Cmr10-65" x="1301.757812"/>
      <use xlink:href="#Cmr10-6c" x="1346.142578"/>
      <use xlink:href="#Cmr10-73" x="1373.828125"/>
      <use xlink:href="#Cmr10-29" x="1413.232422"/>
     </g>
    </g>
   </g>
   <g id="matplotlib.axis_2">
    <g id="ytick_1">
     <g id="line2d_83">
      <defs>
       <path id="m9e7adf10a7" d="M 0 0
L 3 0
" style="stroke: #000000; stroke-width: 0.5"/>
      </defs>
      <g>
       <use xlink:href="#m9e7adf10a7" x="41.7" y="266.953712" style="stroke: #000000; stroke-width: 0.5"/>
      </g>
     </g>
     <g id="line2d_84">
      <defs>
       <path id="mfa62c95ffd" d="M 0 0
L -3 0
" style="stroke: #000000; stroke-width: 0.5"/>
      </defs>
      <g>
       <use xlink:href="#mfa62c95ffd" x="432.3" y="266.953712" style="stroke: #000000; stroke-width: 0.5"/>
      </g>
     </g>
     <g id="text_10">
      <!-- $\mathdefault{−1.5}$ -->
      <g transform="translate(17.6 270.423243) scale(0.1 -0.1)">
       <defs>
        <path id="Cmsy10-a1" d="M 653 1472
Q 600 1472 565 1512
Q 531 1553 531 1600
Q 531 1647 565 1687
Q 600 1728 653 1728
L 4325 1728
Q 4375 1728 4408 1687
Q 4441 1647 4441 1600
Q 4441 1553 4408 1512
Q 4375 1472 4325 1472
L 653 1472
z
" transform="scale(0.015625)"/>
        <path id="Cmr10-2e" d="M 538 353
Q 538 497 644 600
Q 750 703 891 703
Q 978 703 1062 656
Q 1147 609 1194 525
Q 1241 441 1241 353
Q 1241 213 1137 106
Q 1034 0 891 0
Q 750 0 644 106
Q 538 213 538 353
z
" transform="scale(0.015625)"/>
       </defs>
       <use xlink:href="#Cmsy10-a1" transform="translate(0 0.390625)"/>
       <use xlink:href="#Cmr10-31" transform="translate(77.685547 0.390625)"/>
       <use xlink:href="#Cmr10-2e" transform="translate(127.685547 0.390625)"/>
       <use xlink:href="#Cmr10-35" transform="translate(155.371094 0.390625)"/>
      </g>
     </g>
    </g>
    <g id="ytick_2">
     <g id="line2d_85">
      <g>
       <use xlink:href="#m9e7adf10a7" x="41.7" y="235.407355" style="stroke: #000000; stroke-width: 0.5"/>
      </g>
     </g>
     <g id="line2d_86">
      <g>
       <use xlink:href="#mfa62c95ffd" x="432.3" y="235.407355" style="stroke: #000000; stroke-width: 0.5"/>
      </g>
     </g>
     <g id="text_11">
      <!-- $\mathdefault{−1.0}$ -->
      <g transform="translate(17.6 238.876887) scale(0.1 -0.1)">
       <use xlink:href="#Cmsy10-a1" transform="translate(0 0.390625)"/>
       <use xlink:href="#Cmr10-31" transform="translate(77.685547 0.390625)"/>
       <use xlink:href="#Cmr10-2e" transform="translate(127.685547 0.390625)"/>
       <use xlink:href="#Cmr10-30" transform="translate(155.371094 0.390625)"/>
      </g>
     </g>
    </g>
    <g id="ytick_3">
     <g id="line2d_87">
      <g>
       <use xlink:href="#m9e7adf10a7" x="41.7" y="203.860999" style="stroke: #000000; stroke-width: 0.5"/>
      </g>
     </g>
     <g id="line2d_88">
      <g>
       <use xlink:href="#mfa62c95ffd" x="432.3" y="203.860999" style="stroke: #000000; stroke-width: 0.5"/>
      </g>
     </g>
     <g id="text_12">
      <!-- $\mathdefault{−0.5}$ -->
      <g transform="translate(17.6 207.33053) scale(0.1 -0.1)">
       <use xlink:href="#Cmsy10-a1" transform="translate(0 0.390625)"/>
       <use xlink:href="#Cmr10-30" transform="translate(77.685547 0.390625)"/>
       <use xlink:href="#Cmr10-2e" transform="translate(127.685547 0.390625)"/>
       <use xlink:href="#Cmr10-35" transform="translate(155.371094 0.390625)"/>
      </g>
     </g>
    </g>
    <g id="ytick_4">
     <g id="line2d_89">
      <g>
       <use xlink:href="#m9e7adf10a7" x="41.7" y="172.314642" style="stroke: #000000; stroke-width: 0.5"/>
      </g>
     </g>
     <g id="line2d_90">
      <g>
       <use xlink:href="#mfa62c95ffd" x="432.3" y="172.314642" style="stroke: #000000; stroke-width: 0.5"/>
      </g>
     </g>
     <g id="text_13">
      <!-- $\mathdefault{0.0}$ -->
      <g transform="translate(25.4 175.784174) scale(0.1 -0.1)">
       <use xlink:href="#Cmr10-30" transform="translate(0 0.390625)"/>
       <use xlink:href="#Cmr10-2e" transform="translate(50 0.390625)"/>
       <use xlink:href="#Cmr10-30" transform="translate(77.685547 0.390625)"/>
      </g>
     </g>
    </g>
    <g id="ytick_5">
     <g id="line2d_91">
      <g>
       <use xlink:href="#m9e7adf10a7" x="41.7" y="140.768286" style="stroke: #000000; stroke-width: 0.5"/>
      </g>
     </g>
     <g id="line2d_92">
      <g>
       <use xlink:href="#mfa62c95ffd" x="432.3" y="140.768286" style="stroke: #000000; stroke-width: 0.5"/>
      </g>
     </g>
     <g id="text_14">
      <!-- $\mathdefault{0.5}$ -->
      <g transform="translate(25.4 144.237817) scale(0.1 -0.1)">
       <use xlink:href="#Cmr10-30" transform="translate(0 0.390625)"/>
       <use xlink:href="#Cmr10-2e" transform="translate(50 0.390625)"/>
       <use xlink:href="#Cmr10-35" transform="translate(77.685547 0.390625)"/>
      </g>
     </g>
    </g>
    <g id="ytick_6">
     <g id="line2d_93">
      <g>
       <use xlink:href="#m9e7adf10a7" x="41.7" y="109.221929" style="stroke: #000000; stroke-width: 0.5"/>
      </g>
     </g>
     <g id="line2d_94">
      <g>
       <use xlink:href="#mfa62c95ffd" x="432.3" y="109.221929" style="stroke: #000000; stroke-width: 0.5"/>
      </g>
     </g>
     <g id="text_15">
      <!-- $\mathdefault{1.0}$ -->
      <g transform="translate(25.4 112.691461) scale(0.1 -0.1)">
       <use xlink:href="#Cmr10-31" transform="translate(0 0.390625)"/>
       <use xlink:href="#Cmr10-2e" transform="translate(50 0.390625)"/>
       <use xlink:href="#Cmr10-30" transform="translate(77.685547 0.390625)"/>
      </g>
     </g>
    </g>
    <g id="ytick_7">
     <g id="line2d_95">
      <g>
       <use xlink:href="#m9e7adf10a7" x="41.7" y="77.675573" style="stroke: #000000; stroke-width: 0.5"/>
      </g>
     </g>
     <g id="line2d_96">
      <g>
       <use xlink:href="#mfa62c95ffd" x="432.3" y="77.675573" style="stroke: #000000; stroke-width: 0.5"/>
      </g>
     </g>
     <g id="text_16">
      <!-- $\mathdefault{1.5}$ -->
      <g transform="translate(25.4 81.145104) scale(0.1 -0.1)">
       <use xlink:href="#Cmr10-31" transform="translate(0 0.390625)"/>
       <use xlink:href="#Cmr10-2e" transform="translate(50 0.390625)"/>
       <use xlink:href="#Cmr10-35" transform="translate(77.685547 0.390625)"/>
      </g>
     </g>
    </g>
    <g id="ytick_8">
     <g id="line2d_97">
      <g>
       <use xlink:href="#m9e7adf10a7" x="41.7" y="46.129217" style="stroke: #000000; stroke-width: 0.5"/>
      </g>
     </g>
     <g id="line2d_98">
      <g>
       <use xlink:href="#mfa62c95ffd" x="432.3" y="46.129217" style="stroke: #000000; stroke-width: 0.5"/>
      </g>
     </g>
     <g id="text_17">
      <!-- $\mathdefault{2.0}$ -->
      <g transform="translate(25.4 49.598748) scale(0.1 -0.1)">
       <use xlink:href="#Cmr10-32" transform="translate(0 0.390625)"/>
       <use xlink:href="#Cmr10-2e" transform="translate(50 0.390625)"/>
       <use xlink:href="#Cmr10-30" transform="translate(77.685547 0.390625)"/>
      </g>
     </g>
    </g>
    <g id="ytick_9">
     <g id="line2d_99">
      <defs>
       <path id="m3e61c64ecb" d="M 0 0
L 1.5 0
" style="stroke: #000000; stroke-width: 0.5"/>
      </defs>
      <g>
       <use xlink:href="#m3e61c64ecb" x="41.7" y="260.64444" style="stroke: #000000; stroke-width: 0.5"/>
      </g>
     </g>
     <g id="line2d_100">
      <defs>
       <path id="m4f9aff6aa5" d="M 0 0
L -1.5 0
" style="stroke: #000000; stroke-width: 0.5"/>
      </defs>
      <g>
       <use xlink:href="#m4f9aff6aa5" x="432.3" y="260.64444" style="stroke: #000000; stroke-width: 0.5"/>
      </g>
     </g>
    </g>
    <g id="ytick_10">
     <g id="line2d_101">
      <g>
       <use xlink:href="#m3e61c64ecb" x="41.7" y="254.335169" style="stroke: #000000; stroke-width: 0.5"/>
      </g>
     </g>
     <g id="line2d_102">
      <g>
       <use xlink:href="#m4f9aff6aa5" x="432.3" y="254.335169" style="stroke: #000000; stroke-width: 0.5"/>
      </g>
     </g>
    </g>
    <g id="ytick_11">
     <g id="line2d_103">
      <g>
       <use xlink:href="#m3e61c64ecb" x="41.7" y="248.025898" style="stroke: #000000; stroke-width: 0.5"/>
      </g>
     </g>
     <g id="line2d_104">
      <g>
       <use xlink:href="#m4f9aff6aa5" x="432.3" y="248.025898" style="stroke: #000000; stroke-width: 0.5"/>
      </g>
     </g>
    </g>
    <g id="ytick_12">
     <g id="line2d_105">
      <g>
       <use xlink:href="#m3e61c64ecb" x="41.7" y="241.716627" style="stroke: #000000; stroke-width: 0.5"/>
      </g>
     </g>
     <g id="line2d_106">
      <g>
       <use xlink:href="#m4f9aff6aa5" x="432.3" y="241.716627" style="stroke: #000000; stroke-width: 0.5"/>
      </g>
     </g>
    </g>
    <g id="ytick_13">
     <g id="line2d_107">
      <g>
       <use xlink:href="#m3e61c64ecb" x="41.7" y="229.098084" style="stroke: #000000; stroke-width: 0.5"/>
      </g>
     </g>
     <g id="line2d_108">
      <g>
       <use xlink:href="#m4f9aff6aa5" x="432.3" y="229.098084" style="stroke: #000000; stroke-width: 0.5"/>
      </g>
     </g>
    </g>
    <g id="ytick_14">
     <g id="line2d_109">
      <g>
       <use xlink:href="#m3e61c64ecb" x="41.7" y="222.788813" style="stroke: #000000; stroke-width: 0.5"/>
      </g>
     </g>
     <g id="line2d_110">
      <g>
       <use xlink:href="#m4f9aff6aa5" x="432.3" y="222.788813" style="stroke: #000000; stroke-width: 0.5"/>
      </g>
     </g>
    </g>
    <g id="ytick_15">
     <g id="line2d_111">
      <g>
       <use xlink:href="#m3e61c64ecb" x="41.7" y="216.479541" style="stroke: #000000; stroke-width: 0.5"/>
      </g>
     </g>
     <g id="line2d_112">
      <g>
       <use xlink:href="#m4f9aff6aa5" x="432.3" y="216.479541" style="stroke: #000000; stroke-width: 0.5"/>
      </g>
     </g>
    </g>
    <g id="ytick_16">
     <g id="line2d_113">
      <g>
       <use xlink:href="#m3e61c64ecb" x="41.7" y="210.17027" style="stroke: #000000; stroke-width: 0.5"/>
      </g>
     </g>
     <g id="line2d_114">
      <g>
       <use xlink:href="#m4f9aff6aa5" x="432.3" y="210.17027" style="stroke: #000000; stroke-width: 0.5"/>
      </g>
     </g>
    </g>
    <g id="ytick_17">
     <g id="line2d_115">
      <g>
       <use xlink:href="#m3e61c64ecb" x="41.7" y="197.551728" style="stroke: #000000; stroke-width: 0.5"/>
      </g>
     </g>
     <g id="line2d_116">
      <g>
       <use xlink:href="#m4f9aff6aa5" x="432.3" y="197.551728" style="stroke: #000000; stroke-width: 0.5"/>
      </g>
     </g>
    </g>
    <g id="ytick_18">
     <g id="line2d_117">
      <g>
       <use xlink:href="#m3e61c64ecb" x="41.7" y="191.242456" style="stroke: #000000; stroke-width: 0.5"/>
      </g>
     </g>
     <g id="line2d_118">
      <g>
       <use xlink:href="#m4f9aff6aa5" x="432.3" y="191.242456" style="stroke: #000000; stroke-width: 0.5"/>
      </g>
     </g>
    </g>
    <g id="ytick_19">
     <g id="line2d_119">
      <g>
       <use xlink:href="#m3e61c64ecb" x="41.7" y="184.933185" style="stroke: #000000; stroke-width: 0.5"/>
      </g>
     </g>
     <g id="line2d_120">
      <g>
       <use xlink:href="#m4f9aff6aa5" x="432.3" y="184.933185" style="stroke: #000000; stroke-width: 0.5"/>
      </g>
     </g>
    </g>
    <g id="ytick_20">
     <g id="line2d_121">
      <g>
       <use xlink:href="#m3e61c64ecb" x="41.7" y="178.623914" style="stroke: #000000; stroke-width: 0.5"/>
      </g>
     </g>
     <g id="line2d_122">
      <g>
       <use xlink:href="#m4f9aff6aa5" x="432.3" y="178.623914" style="stroke: #000000; stroke-width: 0.5"/>
      </g>
     </g>
    </g>
    <g id="ytick_21">
     <g id="line2d_123">
      <g>
       <use xlink:href="#m3e61c64ecb" x="41.7" y="166.005371" style="stroke: #000000; stroke-width: 0.5"/>
      </g>
     </g>
     <g id="line2d_124">
      <g>
       <use xlink:href="#m4f9aff6aa5" x="432.3" y="166.005371" style="stroke: #000000; stroke-width: 0.5"/>
      </g>
     </g>
    </g>
    <g id="ytick_22">
     <g id="line2d_125">
      <g>
       <use xlink:href="#m3e61c64ecb" x="41.7" y="159.6961" style="stroke: #000000; stroke-width: 0.5"/>
      </g>
     </g>
     <g id="line2d_126">
      <g>
       <use xlink:href="#m4f9aff6aa5" x="432.3" y="159.6961" style="stroke: #000000; stroke-width: 0.5"/>
      </g>
     </g>
    </g>
    <g id="ytick_23">
     <g id="line2d_127">
      <g>
       <use xlink:href="#m3e61c64ecb" x="41.7" y="153.386828" style="stroke: #000000; stroke-width: 0.5"/>
      </g>
     </g>
     <g id="line2d_128">
      <g>
       <use xlink:href="#m4f9aff6aa5" x="432.3" y="153.386828" style="stroke: #000000; stroke-width: 0.5"/>
      </g>
     </g>
    </g>
    <g id="ytick_24">
     <g id="line2d_129">
      <g>
       <use xlink:href="#m3e61c64ecb" x="41.7" y="147.077557" style="stroke: #000000; stroke-width: 0.5"/>
      </g>
     </g>
     <g id="line2d_130">
      <g>
       <use xlink:href="#m4f9aff6aa5" x="432.3" y="147.077557" style="stroke: #000000; stroke-width: 0.5"/>
      </g>
     </g>
    </g>
    <g id="ytick_25">
     <g id="line2d_131">
      <g>
       <use xlink:href="#m3e61c64ecb" x="41.7" y="134.459015" style="stroke: #000000; stroke-width: 0.5"/>
      </g>
     </g>
     <g id="line2d_132">
      <g>
       <use xlink:href="#m4f9aff6aa5" x="432.3" y="134.459015" style="stroke: #000000; stroke-width: 0.5"/>
      </g>
     </g>
    </g>
    <g id="ytick_26">
     <g id="line2d_133">
      <g>
       <use xlink:href="#m3e61c64ecb" x="41.7" y="128.149743" style="stroke: #000000; stroke-width: 0.5"/>
      </g>
     </g>
     <g id="line2d_134">
      <g>
       <use xlink:href="#m4f9aff6aa5" x="432.3" y="128.149743" style="stroke: #000000; stroke-width: 0.5"/>
      </g>
     </g>
    </g>
    <g id="ytick_27">
     <g id="line2d_135">
      <g>
       <use xlink:href="#m3e61c64ecb" x="41.7" y="121.840472" style="stroke: #000000; stroke-width: 0.5"/>
      </g>
     </g>
     <g id="line2d_136">
      <g>
       <use xlink:href="#m4f9aff6aa5" x="432.3" y="121.840472" style="stroke: #000000; stroke-width: 0.5"/>
      </g>
     </g>
    </g>
    <g id="ytick_28">
     <g id="line2d_137">
      <g>
       <use xlink:href="#m3e61c64ecb" x="41.7" y="115.531201" style="stroke: #000000; stroke-width: 0.5"/>
      </g>
     </g>
     <g id="line2d_138">
      <g>
       <use xlink:href="#m4f9aff6aa5" x="432.3" y="115.531201" style="stroke: #000000; stroke-width: 0.5"/>
      </g>
     </g>
    </g>
    <g id="ytick_29">
     <g id="line2d_139">
      <g>
       <use xlink:href="#m3e61c64ecb" x="41.7" y="102.912658" style="stroke: #000000; stroke-width: 0.5"/>
      </g>
     </g>
     <g id="line2d_140">
      <g>
       <use xlink:href="#m4f9aff6aa5" x="432.3" y="102.912658" style="stroke: #000000; stroke-width: 0.5"/>
      </g>
     </g>
    </g>
    <g id="ytick_30">
     <g id="line2d_141">
      <g>
       <use xlink:href="#m3e61c64ecb" x="41.7" y="96.603387" style="stroke: #000000; stroke-width: 0.5"/>
      </g>
     </g>
     <g id="line2d_142">
      <g>
       <use xlink:href="#m4f9aff6aa5" x="432.3" y="96.603387" style="stroke: #000000; stroke-width: 0.5"/>
      </g>
     </g>
    </g>
    <g id="ytick_31">
     <g id="line2d_143">
      <g>
       <use xlink:href="#m3e61c64ecb" x="41.7" y="90.294116" style="stroke: #000000; stroke-width: 0.5"/>
      </g>
     </g>
     <g id="line2d_144">
      <g>
       <use xlink:href="#m4f9aff6aa5" x="432.3" y="90.294116" style="stroke: #000000; stroke-width: 0.5"/>
      </g>
     </g>
    </g>
    <g id="ytick_32">
     <g id="line2d_145">
      <g>
       <use xlink:href="#m3e61c64ecb" x="41.7" y="83.984844" style="stroke: #000000; stroke-width: 0.5"/>
      </g>
     </g>
     <g id="line2d_146">
      <g>
       <use xlink:href="#m4f9aff6aa5" x="432.3" y="83.984844" style="stroke: #000000; stroke-width: 0.5"/>
      </g>
     </g>
    </g>
    <g id="ytick_33">
     <g id="line2d_147">
      <g>
       <use xlink:href="#m3e61c64ecb" x="41.7" y="71.366302" style="stroke: #000000; stroke-width: 0.5"/>
      </g>
     </g>
     <g id="line2d_148">
      <g>
       <use xlink:href="#m4f9aff6aa5" x="432.3" y="71.366302" style="stroke: #000000; stroke-width: 0.5"/>
      </g>
     </g>
    </g>
    <g id="ytick_34">
     <g id="line2d_149">
      <g>
       <use xlink:href="#m3e61c64ecb" x="41.7" y="65.05703" style="stroke: #000000; stroke-width: 0.5"/>
      </g>
     </g>
     <g id="line2d_150">
      <g>
       <use xlink:href="#m4f9aff6aa5" x="432.3" y="65.05703" style="stroke: #000000; stroke-width: 0.5"/>
      </g>
     </g>
    </g>
    <g id="ytick_35">
     <g id="line2d_151">
      <g>
       <use xlink:href="#m3e61c64ecb" x="41.7" y="58.747759" style="stroke: #000000; stroke-width: 0.5"/>
      </g>
     </g>
     <g id="line2d_152">
      <g>
       <use xlink:href="#m4f9aff6aa5" x="432.3" y="58.747759" style="stroke: #000000; stroke-width: 0.5"/>
      </g>
     </g>
    </g>
    <g id="ytick_36">
     <g id="line2d_153">
      <g>
       <use xlink:href="#m3e61c64ecb" x="41.7" y="52.438488" style="stroke: #000000; stroke-width: 0.5"/>
      </g>
     </g>
     <g id="line2d_154">
      <g>
       <use xlink:href="#m4f9aff6aa5" x="432.3" y="52.438488" style="stroke: #000000; stroke-width: 0.5"/>
      </g>
     </g>
    </g>
    <g id="ytick_37">
     <g id="line2d_155">
      <g>
       <use xlink:href="#m3e61c64ecb" x="41.7" y="39.819945" style="stroke: #000000; stroke-width: 0.5"/>
      </g>
     </g>
     <g id="line2d_156">
      <g>
       <use xlink:href="#m4f9aff6aa5" x="432.3" y="39.819945" style="stroke: #000000; stroke-width: 0.5"/>
      </g>
     </g>
    </g>
    <g id="ytick_38">
     <g id="line2d_157">
      <g>
       <use xlink:href="#m3e61c64ecb" x="41.7" y="33.510674" style="stroke: #000000; stroke-width: 0.5"/>
      </g>
     </g>
     <g id="line2d_158">
      <g>
       <use xlink:href="#m4f9aff6aa5" x="432.3" y="33.510674" style="stroke: #000000; stroke-width: 0.5"/>
      </g>
     </g>
    </g>
    <g id="ytick_39">
     <g id="line2d_159">
      <g>
       <use xlink:href="#m3e61c64ecb" x="41.7" y="27.201403" style="stroke: #000000; stroke-width: 0.5"/>
      </g>
     </g>
     <g id="line2d_160">
      <g>
       <use xlink:href="#m4f9aff6aa5" x="432.3" y="27.201403" style="stroke: #000000; stroke-width: 0.5"/>
      </g>
     </g>
    </g>
    <g id="ytick_40">
     <g id="line2d_161">
      <g>
       <use xlink:href="#m3e61c64ecb" x="41.7" y="20.892131" style="stroke: #000000; stroke-width: 0.5"/>
      </g>
     </g>
     <g id="line2d_162">
      <g>
       <use xlink:href="#m4f9aff6aa5" x="432.3" y="20.892131" style="stroke: #000000; stroke-width: 0.5"/>
      </g>
     </g>
    </g>
    <g id="text_18">
     <!-- Trail-charge suppression fraction (FLC vs FLT) -->
     <g transform="translate(11.1 248.686094) rotate(-90) scale(0.1 -0.1)">
      <defs>
       <path id="Cmr10-54" d="M 1081 0
L 1081 225
Q 1403 225 1706 261
Q 2009 297 2009 428
L 2009 3944
Q 2009 4081 1932 4114
Q 1856 4147 1684 4147
L 1416 4147
Q 888 4147 666 3916
Q 550 3800 500 3545
Q 450 3291 416 2906
L 231 2906
L 353 4372
L 4263 4372
L 4384 2906
L 4197 2906
Q 4159 3319 4114 3561
Q 4069 3803 3950 3916
Q 3725 4147 3200 4147
L 2931 4147
Q 2816 4147 2752 4137
Q 2688 4128 2647 4083
Q 2606 4038 2606 3944
L 2606 428
Q 2606 297 2909 261
Q 3213 225 3531 225
L 3531 0
L 1081 0
z
" transform="scale(0.015625)"/>
       <path id="Cmr10-2d" d="M 72 1184
L 72 1581
L 1766 1581
L 1766 1184
L 72 1184
z
" transform="scale(0.015625)"/>
       <path id="Cmr10-68" d="M 191 0
L 191 225
Q 409 225 550 259
Q 691 294 691 428
L 691 3788
Q 691 3959 639 4036
Q 588 4113 491 4130
Q 394 4147 191 4147
L 191 4372
L 1141 4441
L 1141 2241
Q 1275 2506 1515 2667
Q 1756 2828 2047 2828
Q 2491 2828 2714 2615
Q 2938 2403 2938 1966
L 2938 428
Q 2938 294 3078 259
Q 3219 225 3438 225
L 3438 0
L 1972 0
L 1972 225
Q 2191 225 2331 259
Q 2472 294 2472 428
L 2472 1947
Q 2472 2259 2381 2461
Q 2291 2663 2009 2663
Q 1638 2663 1398 2366
Q 1159 2069 1159 1691
L 1159 428
Q 1159 294 1300 259
Q 1441 225 1656 225
L 1656 0
L 191 0
z
" transform="scale(0.015625)"/>
       <path id="Cmr10-67" d="M 178 -500
Q 178 -272 343 -101
Q 509 69 738 141
Q 609 238 542 384
Q 475 531 475 697
Q 475 997 666 1228
Q 372 1516 372 1888
Q 372 2088 458 2263
Q 544 2438 697 2566
Q 850 2694 1037 2761
Q 1225 2828 1422 2828
Q 1803 2828 2106 2606
Q 2238 2747 2417 2823
Q 2597 2900 2791 2900
Q 2928 2900 3015 2801
Q 3103 2703 3103 2566
Q 3103 2488 3043 2428
Q 2984 2369 2906 2369
Q 2825 2369 2765 2428
Q 2706 2488 2706 2566
Q 2706 2684 2784 2731
Q 2453 2731 2216 2503
Q 2331 2388 2401 2220
Q 2472 2053 2472 1888
Q 2472 1616 2322 1398
Q 2172 1181 1926 1061
Q 1681 941 1422 941
Q 1072 941 781 1131
Q 691 1006 691 850
Q 691 681 802 554
Q 913 428 1081 428
L 1606 428
Q 1988 428 2294 359
Q 2600 291 2808 84
Q 3016 -122 3016 -500
Q 3016 -781 2778 -967
Q 2541 -1153 2211 -1236
Q 1881 -1319 1600 -1319
Q 1316 -1319 984 -1236
Q 653 -1153 415 -967
Q 178 -781 178 -500
z
M 538 -500
Q 538 -716 713 -861
Q 888 -1006 1134 -1076
Q 1381 -1147 1600 -1147
Q 1816 -1147 2062 -1076
Q 2309 -1006 2482 -861
Q 2656 -716 2656 -500
Q 2656 -166 2350 -67
Q 2044 31 1606 31
L 1081 31
Q 934 31 811 -39
Q 688 -109 613 -236
Q 538 -363 538 -500
z
M 1422 1113
Q 1966 1113 1966 1888
Q 1966 2222 1850 2439
Q 1734 2656 1422 2656
Q 1109 2656 993 2439
Q 878 2222 878 1888
Q 878 1675 922 1503
Q 966 1331 1084 1222
Q 1203 1113 1422 1113
z
" transform="scale(0.015625)"/>
       <path id="Cmr10-75" d="M 691 763
L 691 2175
Q 691 2347 639 2423
Q 588 2500 491 2517
Q 394 2534 191 2534
L 191 2759
L 1159 2828
L 1159 763
Q 1159 513 1195 373
Q 1231 234 1348 165
Q 1466 97 1722 97
Q 2066 97 2269 384
Q 2472 672 2472 1038
L 2472 2175
Q 2472 2347 2419 2423
Q 2366 2500 2270 2517
Q 2175 2534 1972 2534
L 1972 2759
L 2938 2828
L 2938 581
Q 2938 413 2989 336
Q 3041 259 3137 242
Q 3234 225 3438 225
L 3438 0
L 2491 -72
L 2491 469
Q 2372 228 2159 78
Q 1947 -72 1691 -72
Q 1231 -72 961 123
Q 691 319 691 763
z
" transform="scale(0.015625)"/>
       <path id="Cmr10-6f" d="M 1600 -72
Q 1216 -72 887 123
Q 559 319 368 647
Q 178 975 178 1363
Q 178 1656 283 1928
Q 388 2200 583 2414
Q 778 2628 1037 2748
Q 1297 2869 1600 2869
Q 1994 2869 2317 2661
Q 2641 2453 2828 2104
Q 3016 1756 3016 1363
Q 3016 978 2825 648
Q 2634 319 2307 123
Q 1981 -72 1600 -72
z
M 1600 116
Q 2113 116 2284 487
Q 2456 859 2456 1434
Q 2456 1756 2422 1967
Q 2388 2178 2272 2350
Q 2200 2456 2089 2536
Q 1978 2616 1854 2658
Q 1731 2700 1600 2700
Q 1400 2700 1220 2609
Q 1041 2519 922 2350
Q 803 2169 770 1951
Q 738 1734 738 1434
Q 738 1075 800 789
Q 863 503 1052 309
Q 1241 116 1600 116
z
" transform="scale(0.015625)"/>
       <path id="Cmr10-46" d="M 197 0
L 197 225
Q 856 225 856 428
L 856 3944
Q 856 4147 197 4147
L 197 4372
L 3725 4372
L 3903 2906
L 3719 2906
Q 3675 3309 3601 3542
Q 3528 3775 3387 3908
Q 3247 4041 3011 4094
Q 2775 4147 2363 4147
L 1778 4147
Q 1663 4147 1598 4137
Q 1534 4128 1493 4083
Q 1453 4038 1453 3944
L 1453 2297
L 1906 2297
Q 2234 2297 2387 2355
Q 2541 2413 2598 2566
Q 2656 2719 2656 3047
L 2841 3047
L 2841 1325
L 2656 1325
Q 2656 1653 2598 1806
Q 2541 1959 2387 2017
Q 2234 2075 1906 2075
L 1453 2075
L 1453 428
Q 1453 225 2272 225
L 2272 0
L 197 0
z
" transform="scale(0.015625)"/>
       <path id="Cmr10-4c" d="M 197 0
L 197 225
Q 856 225 856 428
L 856 3944
Q 856 4147 197 4147
L 197 4372
L 2272 4372
L 2272 4147
Q 1453 4147 1453 3944
L 1453 428
Q 1453 291 1531 258
Q 1609 225 1778 225
L 2272 225
Q 2750 225 3009 400
Q 3269 575 3376 876
Q 3484 1178 3541 1678
L 3725 1678
L 3547 0
L 197 0
z
" transform="scale(0.015625)"/>
       <path id="Cmr10-43" d="M 1459 684
Q 1678 406 2006 245
Q 2334 84 2688 84
Q 2984 84 3237 201
Q 3491 319 3680 528
Q 3869 738 3970 1003
Q 4072 1269 4072 1563
Q 4072 1613 4128 1613
L 4206 1613
Q 4256 1613 4256 1550
Q 4256 1216 4128 905
Q 4000 594 3765 358
Q 3531 122 3226 -9
Q 2922 -141 2591 -141
Q 2131 -141 1720 45
Q 1309 231 1004 554
Q 700 878 529 1303
Q 359 1728 359 2188
Q 359 2647 529 3072
Q 700 3497 1004 3822
Q 1309 4147 1720 4330
Q 2131 4513 2591 4513
Q 2919 4513 3219 4370
Q 3519 4228 3744 3969
L 4116 4494
Q 4153 4513 4159 4513
L 4206 4513
Q 4225 4513 4240 4497
Q 4256 4481 4256 4459
L 4256 2731
Q 4256 2675 4206 2675
L 4091 2675
Q 4031 2675 4031 2731
Q 4031 2916 3957 3144
Q 3884 3372 3770 3576
Q 3656 3781 3506 3938
Q 3147 4288 2681 4288
Q 2328 4288 2004 4128
Q 1681 3969 1459 3688
Q 1225 3388 1134 3005
Q 1044 2622 1044 2188
Q 1044 1753 1134 1368
Q 1225 984 1459 684
z
" transform="scale(0.015625)"/>
       <path id="Cmr10-76" d="M 1563 0
L 628 2350
Q 569 2469 445 2501
Q 322 2534 122 2534
L 122 2759
L 1466 2759
L 1466 2534
Q 1106 2534 1106 2381
Q 1106 2356 1113 2344
L 1831 538
L 2478 2169
Q 2497 2219 2497 2272
Q 2497 2394 2405 2464
Q 2313 2534 2188 2534
L 2188 2759
L 3250 2759
L 3250 2534
Q 3053 2534 2904 2443
Q 2756 2353 2675 2175
L 1813 0
Q 1788 -72 1709 -72
L 1663 -72
Q 1584 -72 1563 0
z
" transform="scale(0.015625)"/>
      </defs>
      <use xlink:href="#Cmr10-54"/>
      <use xlink:href="#Cmr10-72" x="72.216797"/>
      <use xlink:href="#Cmr10-61" x="111.328125"/>
      <use xlink:href="#Cmr10-69" x="161.328125"/>
      <use xlink:href="#Cmr10-6c" x="189.013672"/>
      <use xlink:href="#Cmr10-2d" x="216.699219"/>
      <use xlink:href="#Cmr10-63" x="250"/>
      <use xlink:href="#Cmr10-68" x="294.384766"/>
      <use xlink:href="#Cmr10-61" x="349.902344"/>
      <use xlink:href="#Cmr10-72" x="399.902344"/>
      <use xlink:href="#Cmr10-67" x="439.013672"/>
      <use xlink:href="#Cmr10-65" x="489.013672"/>
      <use xlink:href="#Cmr10-20" x="533.398438"/>
      <use xlink:href="#Cmr10-73" x="566.699219"/>
      <use xlink:href="#Cmr10-75" x="606.103516"/>
      <use xlink:href="#Cmr10-70" x="661.621094"/>
      <use xlink:href="#Cmr10-70" x="717.138672"/>
      <use xlink:href="#Cmr10-72" x="772.65625"/>
      <use xlink:href="#Cmr10-65" x="811.767578"/>
      <use xlink:href="#Cmr10-73" x="856.152344"/>
      <use xlink:href="#Cmr10-73" x="895.556641"/>
      <use xlink:href="#Cmr10-69" x="934.960938"/>
      <use xlink:href="#Cmr10-6f" x="962.646484"/>
      <use xlink:href="#Cmr10-6e" x="1012.646484"/>
      <use xlink:href="#Cmr10-20" x="1068.164062"/>
      <use xlink:href="#Cmr10-66" x="1101.464844"/>
      <use xlink:href="#Cmr10-72" x="1131.982422"/>
      <use xlink:href="#Cmr10-61" x="1171.09375"/>
      <use xlink:href="#Cmr10-63" x="1221.09375"/>
      <use xlink:href="#Cmr10-74" x="1265.478516"/>
      <use xlink:href="#Cmr10-69" x="1304.296875"/>
      <use xlink:href="#Cmr10-6f" x="1331.982422"/>
      <use xlink:href="#Cmr10-6e" x="1381.982422"/>
      <use xlink:href="#Cmr10-20" x="1437.5"/>
      <use xlink:href="#Cmr10-28" x="1470.800781"/>
      <use xlink:href="#Cmr10-46" x="1509.619141"/>
      <use xlink:href="#Cmr10-4c" x="1574.804688"/>
      <use xlink:href="#Cmr10-43" x="1637.304688"/>
      <use xlink:href="#Cmr10-20" x="1709.521484"/>
      <use xlink:href="#Cmr10-76" x="1742.822266"/>
      <use xlink:href="#Cmr10-73" x="1795.507812"/>
      <use xlink:href="#Cmr10-20" x="1834.912109"/>
      <use xlink:href="#Cmr10-46" x="1868.212891"/>
      <use xlink:href="#Cmr10-4c" x="1933.398438"/>
      <use xlink:href="#Cmr10-54" x="1995.898438"/>
      <use xlink:href="#Cmr10-29" x="2068.115234"/>
     </g>
    </g>
   </g>
   <g id="line2d_163">
    <defs>
     <path id="m6edd2920a2" d="M 0 3
C 0.795609 3 1.55874 2.683901 2.12132 2.12132
C 2.683901 1.55874 3 0.795609 3 0
C 3 -0.795609 2.683901 -1.55874 2.12132 -2.12132
C 1.55874 -2.683901 0.795609 -3 0 -3
C -0.795609 -3 -1.55874 -2.683901 -2.12132 -2.12132
C -2.683901 -1.55874 -3 -0.795609 -3 0
C -3 0.795609 -2.683901 1.55874 -2.12132 2.12132
C -1.55874 2.683901 -0.795609 3 0 3
z
" style="stroke: #2ca02c"/>
    </defs>
    <g clip-path="url(#p8b388c654d)">
     <use xlink:href="#m6edd2920a2" x="105.488604" y="241.715608" style="fill: #2ca02c; stroke: #2ca02c"/>
     <use xlink:href="#m6edd2920a2" x="414.502853" y="178.757878" style="fill: #2ca02c; stroke: #2ca02c"/>
     <use xlink:href="#m6edd2920a2" x="164.152669" y="110.014927" style="fill: #2ca02c; stroke: #2ca02c"/>
     <use xlink:href="#m6edd2920a2" x="109.122602" y="96.845384" style="fill: #2ca02c; stroke: #2ca02c"/>
     <use xlink:href="#m6edd2920a2" x="312.243337" y="153.593998" style="fill: #2ca02c; stroke: #2ca02c"/>
     <use xlink:href="#m6edd2920a2" x="59.454545" y="122.625828" style="fill: #2ca02c; stroke: #2ca02c"/>
     <use xlink:href="#m6edd2920a2" x="364.648842" y="142.864521" style="fill: #2ca02c; stroke: #2ca02c"/>
     <use xlink:href="#m6edd2920a2" x="331.444965" y="108.986474" style="fill: #2ca02c; stroke: #2ca02c"/>
     <use xlink:href="#m6edd2920a2" x="189.71143" y="114.878474" style="fill: #2ca02c; stroke: #2ca02c"/>
     <use xlink:href="#m6edd2920a2" x="330.966202" y="118.426565" style="fill: #2ca02c; stroke: #2ca02c"/>
     <use xlink:href="#m6edd2920a2" x="98.902932" y="195.721903" style="fill: #2ca02c; stroke: #2ca02c"/>
     <use xlink:href="#m6edd2920a2" x="131.391037" y="29.94" style="fill: #2ca02c; stroke: #2ca02c"/>
     <use xlink:href="#m6edd2920a2" x="74.072069" y="122.46227" style="fill: #2ca02c; stroke: #2ca02c"/>
     <use xlink:href="#m6edd2920a2" x="212.920285" y="141.109541" style="fill: #2ca02c; stroke: #2ca02c"/>
     <use xlink:href="#m6edd2920a2" x="106.026828" y="191.432021" style="fill: #2ca02c; stroke: #2ca02c"/>
     <use xlink:href="#m6edd2920a2" x="320.629124" y="96.739829" style="fill: #2ca02c; stroke: #2ca02c"/>
     <use xlink:href="#m6edd2920a2" x="119.749598" y="134.262519" style="fill: #2ca02c; stroke: #2ca02c"/>
     <use xlink:href="#m6edd2920a2" x="414.545455" y="173.373476" style="fill: #2ca02c; stroke: #2ca02c"/>
     <use xlink:href="#m6edd2920a2" x="115.092391" y="87.910679" style="fill: #2ca02c; stroke: #2ca02c"/>
     <use xlink:href="#m6edd2920a2" x="159.892295" y="91.019729" style="fill: #2ca02c; stroke: #2ca02c"/>
     <use xlink:href="#m6edd2920a2" x="219.901133" y="105.952299" style="fill: #2ca02c; stroke: #2ca02c"/>
     <use xlink:href="#m6edd2920a2" x="222.29472" y="132.388356" style="fill: #2ca02c; stroke: #2ca02c"/>
     <use xlink:href="#m6edd2920a2" x="226.197514" y="60.937711" style="fill: #2ca02c; stroke: #2ca02c"/>
     <use xlink:href="#m6edd2920a2" x="172.342436" y="184.240604" style="fill: #2ca02c; stroke: #2ca02c"/>
     <use xlink:href="#m6edd2920a2" x="169.929331" y="85.32648" style="fill: #2ca02c; stroke: #2ca02c"/>
     <use xlink:href="#m6edd2920a2" x="238.524159" y="96.953206" style="fill: #2ca02c; stroke: #2ca02c"/>
     <use xlink:href="#m6edd2920a2" x="106.046292" y="191.564069" style="fill: #2ca02c; stroke: #2ca02c"/>
     <use xlink:href="#m6edd2920a2" x="414.536005" y="173.980705" style="fill: #2ca02c; stroke: #2ca02c"/>
     <use xlink:href="#m6edd2920a2" x="231.952311" y="126.125496" style="fill: #2ca02c; stroke: #2ca02c"/>
     <use xlink:href="#m6edd2920a2" x="156.150378" y="99.691748" style="fill: #2ca02c; stroke: #2ca02c"/>
     <use xlink:href="#m6edd2920a2" x="391.708484" y="140.681955" style="fill: #2ca02c; stroke: #2ca02c"/>
     <use xlink:href="#m6edd2920a2" x="70.980548" y="256.74" style="fill: #2ca02c; stroke: #2ca02c"/>
     <use xlink:href="#m6edd2920a2" x="279.023902" y="102.360271" style="fill: #2ca02c; stroke: #2ca02c"/>
     <use xlink:href="#m6edd2920a2" x="354.865713" y="134.931982" style="fill: #2ca02c; stroke: #2ca02c"/>
     <use xlink:href="#m6edd2920a2" x="217.54713" y="107.697194" style="fill: #2ca02c; stroke: #2ca02c"/>
     <use xlink:href="#m6edd2920a2" x="72.129881" y="114.184665" style="fill: #2ca02c; stroke: #2ca02c"/>
    </g>
   </g>
   <g id="patch_3">
    <path d="M 41.7 268.08
L 41.7 18.6
" style="fill: none; stroke: #000000; stroke-width: 0.5; stroke-linejoin: miter; stroke-linecap: square"/>
   </g>
   <g id="patch_4">
    <path d="M 432.3 268.08
L 432.3 18.6
" style="fill: none; stroke: #000000; stroke-width: 0.5; stroke-linejoin: miter; stroke-linecap: square"/>
   </g>
   <g id="patch_5">
    <path d="M 41.7 268.08
L 432.3 268.08
" style="fill: none; stroke: #000000; stroke-width: 0.5; stroke-linejoin: miter; stroke-linecap: square"/>
   </g>
   <g id="patch_6">
    <path d="M 41.7 18.6
L 432.3 18.6
" style="fill: none; stroke: #000000; stroke-width: 0.5; stroke-linejoin: miter; stroke-linecap: square"/>
   </g>
   <g id="text_19">
    <!-- Suppression vs transfer distance (n=36 sources) -->
    <g transform="translate(111.493125 12.6) scale(0.12 -0.12)">
     <defs>
      <path id="Cmr10-53" d="M 359 -91
L 359 1403
Q 359 1453 416 1453
L 494 1453
Q 513 1453 528 1437
Q 544 1422 544 1403
Q 544 775 933 429
Q 1322 84 1953 84
Q 2175 84 2362 212
Q 2550 341 2654 548
Q 2759 756 2759 978
Q 2759 1172 2681 1355
Q 2603 1538 2456 1672
Q 2309 1806 2125 1850
L 1294 2053
Q 881 2163 620 2502
Q 359 2841 359 3263
Q 359 3594 528 3884
Q 697 4175 983 4344
Q 1269 4513 1600 4513
Q 2241 4513 2619 4078
L 2881 4494
Q 2900 4513 2925 4513
L 2969 4513
Q 2988 4513 3005 4498
Q 3022 4484 3022 4459
L 3022 2975
Q 3022 2919 2969 2919
L 2894 2919
Q 2834 2919 2834 2975
Q 2834 3138 2779 3331
Q 2725 3525 2628 3703
Q 2531 3881 2419 3994
Q 2109 4306 1600 4306
Q 1381 4306 1197 4195
Q 1013 4084 903 3893
Q 794 3703 794 3494
Q 794 3219 964 2995
Q 1134 2772 1409 2700
L 2241 2497
Q 2447 2447 2630 2317
Q 2813 2188 2934 2016
Q 3056 1844 3125 1633
Q 3194 1422 3194 1197
Q 3194 850 3034 542
Q 2875 234 2586 46
Q 2297 -141 1953 -141
Q 1741 -141 1519 -94
Q 1297 -47 1109 50
Q 922 147 769 300
L 500 -122
Q 481 -141 453 -141
L 416 -141
Q 359 -141 359 -91
z
" transform="scale(0.015625)"/>
      <path id="Cmr10-3d" d="M 481 850
Q 428 850 393 890
Q 359 931 359 978
Q 359 1031 393 1068
Q 428 1106 481 1106
L 4500 1106
Q 4547 1106 4581 1068
Q 4616 1031 4616 978
Q 4616 931 4581 890
Q 4547 850 4500 850
L 481 850
z
M 481 2094
Q 428 2094 393 2131
Q 359 2169 359 2222
Q 359 2269 393 2309
Q 428 2350 481 2350
L 4500 2350
Q 4547 2350 4581 2309
Q 4616 2269 4616 2222
Q 4616 2169 4581 2131
Q 4547 2094 4500 2094
L 481 2094
z
" transform="scale(0.015625)"/>
      <path id="Cmr10-33" d="M 609 494
Q 759 275 1012 169
Q 1266 63 1556 63
Q 1928 63 2084 380
Q 2241 697 2241 1100
Q 2241 1281 2208 1462
Q 2175 1644 2097 1800
Q 2019 1956 1883 2050
Q 1747 2144 1550 2144
L 1125 2144
Q 1069 2144 1069 2203
L 1069 2259
Q 1069 2309 1125 2309
L 1478 2338
Q 1703 2338 1851 2506
Q 2000 2675 2069 2917
Q 2138 3159 2138 3378
Q 2138 3684 1994 3881
Q 1850 4078 1556 4078
Q 1313 4078 1091 3986
Q 869 3894 738 3706
Q 750 3709 759 3711
Q 769 3713 781 3713
Q 925 3713 1022 3613
Q 1119 3513 1119 3372
Q 1119 3234 1022 3134
Q 925 3034 781 3034
Q 641 3034 541 3134
Q 441 3234 441 3372
Q 441 3647 606 3850
Q 772 4053 1033 4158
Q 1294 4263 1556 4263
Q 1750 4263 1965 4205
Q 2181 4147 2356 4039
Q 2531 3931 2642 3762
Q 2753 3594 2753 3378
Q 2753 3109 2633 2881
Q 2513 2653 2303 2487
Q 2094 2322 1844 2241
Q 2122 2188 2372 2031
Q 2622 1875 2773 1631
Q 2925 1388 2925 1106
Q 2925 753 2731 467
Q 2538 181 2222 20
Q 1906 -141 1556 -141
Q 1256 -141 954 -26
Q 653 88 461 316
Q 269 544 269 863
Q 269 1022 375 1128
Q 481 1234 641 1234
Q 744 1234 830 1186
Q 916 1138 964 1050
Q 1013 963 1013 863
Q 1013 706 903 600
Q 794 494 641 494
L 609 494
z
" transform="scale(0.015625)"/>
      <path id="Cmr10-36" d="M 1600 -141
Q 1203 -141 937 70
Q 672 281 526 617
Q 381 953 325 1322
Q 269 1691 269 2069
Q 269 2575 466 3084
Q 663 3594 1045 3928
Q 1428 4263 1953 4263
Q 2172 4263 2361 4180
Q 2550 4097 2658 3936
Q 2766 3775 2766 3547
Q 2766 3416 2677 3327
Q 2588 3238 2456 3238
Q 2331 3238 2240 3328
Q 2150 3419 2150 3547
Q 2150 3672 2240 3762
Q 2331 3853 2456 3853
L 2491 3853
Q 2409 3969 2261 4023
Q 2113 4078 1953 4078
Q 1759 4078 1595 3993
Q 1431 3909 1300 3765
Q 1169 3622 1081 3448
Q 994 3275 945 3053
Q 897 2831 884 2637
Q 872 2444 872 2150
Q 984 2413 1190 2580
Q 1397 2747 1656 2747
Q 1941 2747 2175 2631
Q 2409 2516 2578 2311
Q 2747 2106 2836 1843
Q 2925 1581 2925 1313
Q 2925 938 2758 598
Q 2591 259 2287 59
Q 1984 -141 1600 -141
z
M 1600 63
Q 1847 63 1997 175
Q 2147 288 2217 473
Q 2288 659 2305 848
Q 2322 1038 2322 1313
Q 2322 1675 2287 1931
Q 2253 2188 2100 2383
Q 1947 2578 1631 2578
Q 1372 2578 1205 2403
Q 1038 2228 961 1961
Q 884 1694 884 1447
Q 884 1363 891 1319
Q 891 1309 889 1303
Q 888 1297 884 1288
Q 884 1013 940 731
Q 997 450 1156 256
Q 1316 63 1600 63
z
" transform="scale(0.015625)"/>
     </defs>
     <use xlink:href="#Cmr10-53"/>
     <use xlink:href="#Cmr10-75" x="55.517578"/>
     <use xlink:href="#Cmr10-70" x="111.035156"/>
     <use xlink:href="#Cmr10-70" x="166.552734"/>
     <use xlink:href="#Cmr10-72" x="222.070312"/>
     <use xlink:href="#Cmr10-65" x="261.181641"/>
     <use xlink:href="#Cmr10-73" x="305.566406"/>
     <use xlink:href="#Cmr10-73" x="344.970703"/>
     <use xlink:href="#Cmr10-69" x="384.375"/>
     <use xlink:href="#Cmr10-6f" x="412.060547"/>
     <use xlink:href="#Cmr10-6e" x="462.060547"/>
     <use xlink:href="#Cmr10-20" x="517.578125"/>
     <use xlink:href="#Cmr10-76" x="550.878906"/>
     <use xlink:href="#Cmr10-73" x="603.564453"/>
     <use xlink:href="#Cmr10-20" x="642.96875"/>
     <use xlink:href="#Cmr10-74" x="676.269531"/>
     <use xlink:href="#Cmr10-72" x="715.087891"/>
     <use xlink:href="#Cmr10-61" x="754.199219"/>
     <use xlink:href="#Cmr10-6e" x="804.199219"/>
     <use xlink:href="#Cmr10-73" x="859.716797"/>
     <use xlink:href="#Cmr10-66" x="899.121094"/>
     <use xlink:href="#Cmr10-65" x="929.638672"/>
     <use xlink:href="#Cmr10-72" x="974.023438"/>
     <use xlink:href="#Cmr10-20" x="1013.134766"/>
     <use xlink:href="#Cmr10-64" x="1046.435547"/>
     <use xlink:href="#Cmr10-69" x="1101.953125"/>
     <use xlink:href="#Cmr10-73" x="1129.638672"/>
     <use xlink:href="#Cmr10-74" x="1169.042969"/>
     <use xlink:href="#Cmr10-61" x="1207.861328"/>
     <use xlink:href="#Cmr10-6e" x="1257.861328"/>
     <use xlink:href="#Cmr10-63" x="1313.378906"/>
     <use xlink:href="#Cmr10-65" x="1357.763672"/>
     <use xlink:href="#Cmr10-20" x="1402.148438"/>
     <use xlink:href="#Cmr10-28" x="1435.449219"/>
     <use xlink:href="#Cmr10-6e" x="1474.267578"/>
     <use xlink:href="#Cmr10-3d" x="1529.785156"/>
     <use xlink:href="#Cmr10-33" x="1607.470703"/>
     <use xlink:href="#Cmr10-36" x="1657.470703"/>
     <use xlink:href="#Cmr10-20" x="1707.470703"/>
     <use xlink:href="#Cmr10-73" x="1740.771484"/>
     <use xlink:href="#Cmr10-6f" x="1780.175781"/>
     <use xlink:href="#Cmr10-75" x="1830.175781"/>
     <use xlink:href="#Cmr10-72" x="1885.693359"/>
     <use xlink:href="#Cmr10-63" x="1924.804688"/>
     <use xlink:href="#Cmr10-65" x="1969.189453"/>
     <use xlink:href="#Cmr10-73" x="2013.574219"/>
     <use xlink:href="#Cmr10-29" x="2052.978516"/>
    </g>
   </g>
  </g>
 </g>
 <defs>
  <clipPath id="p8b388c654d">
   <rect x="41.7" y="18.6" width="390.6" height="249.48"/>
  </clipPath>
 </defs>
</svg>
